<?xml version="1.0" encoding="UTF-8"?>
<svg id="" enable-background="new 0 0 610.3 100" version="1.1" viewBox="0 0 610.3 100" xml:space="preserve" xmlns="http://www.w3.org/2000/svg">
<style type="text/css">.st0{fill:#529930;}</style>
<path class="st0" d="M36.5,62.1L0,2h30.4l19.8,35L70.1,2h29.8L63.3,61.7v36.4H36.5V62.1z"/>
<path class="st0" d="m103.3 2h26.7v39l33.1-39h31.6l-36.4 41.3 37.6 54.8h-32l-24.2-35.7-9.7 10.9v24.9h-26.7v-96.2z"/>
<path class="st0" d="M198.8,2H240c24.3,0,40,12.5,40,33.8V36c0,22.7-17.4,34.6-41.3,34.6h-13.2v27.5h-26.7V2z M238.1,49.8 c9.5,0,15.2-4.9,15.2-12.5V37c0-8.2-5.8-12.6-15.4-12.6h-12.5v25.4H238.1z"/>
<path class="st0" d="m279.1 83.8 14.9-17.7c9.5 7.6 20.1 11.5 31.2 11.5 7.1 0 11-2.5 11-6.6v-0.3c0-4-3.2-6.2-16.2-9.2-20.5-4.7-36.3-10.4-36.3-30.2v-0.3c0-17.9 14.1-30.8 37.2-30.8 16.3 0 29.1 4.4 39.6 12.8l-13.3 18.8c-8.8-6.2-18.4-9.5-26.9-9.5-6.5 0-9.6 2.7-9.6 6.2v0.3c0 4.4 3.3 6.3 16.6 9.3 22 4.9 35.7 12.1 35.7 30.1v0.3c0 19.6-15.5 31.3-38.9 31.3-17 0-33.2-5.4-45-16z"/>
<path d="m428.7 4.3-8.6 35.3h-13.8l4.2-35.3h18.2m3.9-3h-24.8l-4.9 41.4h19.6l10.1-41.4z"/>
<path d="m479 3.3c9.6 0 17.7 2.7 23.6 7.8 5.7 5 8.8 11.8 8.8 19.8v0.3c0 6.8-1.6 12-5.2 16.9-3.8 5.2-9.8 9.9-15.8 14.2l-16.5 11.5-7.9 5.6h46.3v15.6h-70v-15.5l34.8-26.5c8.6-6.7 13.5-12.1 13.5-19.7 0-7.7-5.5-12.8-13.8-12.8-7.4 0-12.9 4.1-19.4 11.2l-13.4-11.2c4.7-5.7 9-9.6 13.7-12.2 6-3.4 12.7-5 21.3-5m0-3c-18.7 0-28.8 7.3-39.1 20.6l18 15c7.6-8.7 12.6-12.4 19.1-12.4s10.7 3.7 10.7 9.8c0 5.8-3.4 10.3-12.4 17.3l-36 27.5v20.1h76.1v-21.8h-39.7l16.5-11.5c14.3-10.3 22.3-18.3 22.3-33.7v-0.3c-0.1-18.1-14.5-30.6-35.5-30.6z"/>
<path d="m565.9 3.1c12.1 0 22.6 4.7 30.1 13.6 7.2 8.5 11.2 20.2 11.2 33.1v0.2c0 12.8-4 24.6-11.3 33.2-7.6 9-18.1 13.7-30.3 13.7s-22.6-4.7-30.2-13.6c-7.2-8.5-11.2-20.2-11.2-33.1v-0.2c0-12.8 4-24.6 11.3-33.2 7.8-9 18.3-13.7 30.4-13.7m0 76.3c6.2 0 11.6-3.1 15.4-8.7 3.5-5.2 5.3-12.3 5.3-20.5v-0.2c0-8-1.9-15.3-5.5-20.6-3.8-5.7-9.3-8.8-15.4-8.8s-11.6 3.1-15.3 8.6c-3.5 5.2-5.3 12.3-5.3 20.5v0.3c-0.1 17.3 8.5 29.4 20.8 29.4m0-79.4c-27.3 0-44.6 22.8-44.6 50v0.3c0 27.2 16.9 49.7 44.4 49.7s44.6-22.8 44.6-50v-0.3c0-27.2-17.1-49.7-44.4-49.7zm0 76.4c-10.7 0-17.9-11-17.9-26.4v-0.3c0-15.4 7-26.1 17.6-26.1s17.9 11.1 17.9 26.4v0.3c0 15.2-6.9 26.1-17.6 26.1z"/>
</svg>
