<?xml version="1.0" encoding="UTF-8"?>
<svg id="" enable-background="new 0 0 207.36 100" version="1.1" viewBox="0 0 207.36 100" xml:space="preserve" xmlns="http://www.w3.org/2000/svg">
<style type="text/css">.st0{fill:#529930;}</style>
<polygon class="st0" points="2.25 40.58 6.67 3.2 27.16 3.2 18.02 40.58"/>
<path d="m24.62 5.2-8.17 33.38h-11.95l3.95-33.38h16.17m5.09-4h-24.81l-4.9 41.38h19.59l10.12-41.38z"/>
<path d="m76.04 4.18c18.81 0 31.44 10.7 31.44 26.63v0.27c0 13.31-6.35 20.13-20.57 30.39l-16.46 11.53-10.4 7.28h48.39v13.7h-68.1v-14.07l34.42-26.27 0.04-0.04c8.8-6.9 13.89-12.46 13.89-20.45 0-4.11-1.47-7.61-4.26-10.12-2.65-2.38-6.26-3.64-10.45-3.64-7.47 0-13.06 3.92-19.49 10.83l-12.02-10c8.52-10.21 17.33-16.04 33.57-16.04m0-4c-18.68 0-28.85 7.28-39.15 20.6l17.99 14.97c7.55-8.65 12.64-12.36 19.09-12.36 6.46 0 10.71 3.71 10.71 9.75 0 5.77-3.43 10.3-12.36 17.31l-35.97 27.48v20.05h76.1v-21.7h-39.7l16.48-11.54c14.29-10.3 22.25-18.27 22.25-33.65v-0.27c0-18.14-14.42-30.64-35.44-30.64z"/>
<path d="m162.99 3.9c11.86 0 22.02 4.58 29.39 13.25 7.08 8.33 10.98 19.87 10.98 32.47v0.27c0 12.62-3.93 24.2-11.07 32.61-7.44 8.76-17.66 13.39-29.57 13.39s-22.09-4.58-29.44-13.25c-7.05-8.31-10.93-19.85-10.93-32.47v-0.27c0-12.6 3.95-24.18 11.12-32.61 7.45-8.75 17.66-13.39 29.52-13.39m0 76.38c12.91 0 21.58-12.1 21.58-30.1v-0.28c0-8.32-1.95-15.63-5.64-21.13-3.99-5.96-9.75-9.24-16.22-9.24s-12.18 3.22-16.08 9.06c-3.6 5.39-5.5 12.66-5.5 21.04v0.27c0.01 17.89 8.99 30.38 21.86 30.38m0-80.38c-27.34 0-44.64 22.8-44.64 50v0.27c0 27.2 16.9 49.73 44.37 49.73s44.64-22.8 44.64-50v-0.27c0-27.2-17.03-49.73-44.37-49.73zm0 76.38c-10.71 0-17.86-10.99-17.86-26.37v-0.27c0-15.38 7.01-26.1 17.58-26.1 10.58 0 17.86 11.13 17.86 26.37v0.27c0.01 15.25-6.86 26.1-17.58 26.1z"/>
</svg>
