<?xml version="1.0" encoding="utf-8"?>
<!-- Generator: Adobe Illustrator 24.0.0, SVG Export Plug-In . SVG Version: 6.00 Build 0)  -->
<svg version="1.1" id="图层_1" xmlns="http://www.w3.org/2000/svg" xmlns:xlink="http://www.w3.org/1999/xlink" x="0px" y="0px"
	 viewBox="0 0 1000 163.86" style="enable-background:new 0 0 1000 163.86;" xml:space="preserve">
<style type="text/css">
	.st0{fill:#529930;}
</style>
<g>
	<g>
		<path class="st0" d="M59.87,101.81L0,3.22h49.74l32.41,57.4l32.64-57.4h48.84l-59.87,97.91v59.65H59.87V101.81z"/>
		<path class="st0" d="M169.26,3.22h43.67v63.92l54.25-63.92h51.77l-59.65,67.75l61.67,89.81h-52.44l-39.61-58.52l-15.98,17.78
			v40.74h-43.67V3.22z"/>
		<path class="st0" d="M325.69,3.22h67.53c39.84,0,65.5,20.48,65.5,55.37v0.45c0,37.14-28.59,56.72-67.75,56.72h-21.61v45.02h-43.67
			V3.22z M390.07,81.55c15.53,0,24.98-8.1,24.98-20.48v-0.45c0-13.5-9.45-20.71-25.21-20.71h-20.48v41.64H390.07z"/>
		<path class="st0" d="M457.36,137.37l24.31-29.04c15.53,12.38,32.86,18.91,51.09,18.91c11.7,0,18.01-4.05,18.01-10.8v-0.45
			c0-6.53-5.18-10.13-26.56-15.08c-33.54-7.65-59.42-17.11-59.42-49.52v-0.45c0-29.26,23.18-50.42,61-50.42
			c26.78,0,47.72,7.2,64.82,20.93l-21.83,30.84c-14.41-10.13-30.16-15.53-44.12-15.53c-10.58,0-15.76,4.5-15.76,10.13v0.45
			c0,7.2,5.4,10.35,27.24,15.31c36.24,7.88,58.75,19.58,58.75,49.07v0.45c0,32.19-25.43,51.32-63.7,51.32
			C503.28,163.48,476.72,154.7,457.36,137.37z"/>
	</g>
	<g>
		<g>
			<path d="M702.53,7.12l-14.15,57.81h-22.54l6.84-57.81H702.53 M708.9,2.12h-40.66l-8.02,67.81h32.09L708.9,2.12L708.9,2.12z"/>
		</g>
		<g>
			<path d="M784.82,5.45c15.67,0,29.05,4.4,38.68,12.74c9.42,8.14,14.39,19.37,14.39,32.46v0.45c0,11.1-2.62,19.66-8.5,27.76
				c-6.24,8.59-16.11,16.28-25.86,23.31l-26.98,18.89l-12.99,9.1h15.86h60.05v25.56h-114.7v-25.39l57.01-43.52l0.03-0.02l0.03-0.02
				C795.87,75.75,804,66.93,804,54.47c0-12.55-9.06-20.98-22.56-20.98c-12.07,0-21.13,6.66-31.8,18.32L727.63,33.5
				c7.72-9.41,14.75-15.66,22.43-20C759.77,8.01,770.81,5.45,784.82,5.45 M784.82,0.45c-30.61,0-47.27,11.93-64.15,33.76
				l29.49,24.53c12.38-14.18,20.71-20.26,31.29-20.26c10.58,0,17.56,6.08,17.56,15.98c0,9.45-5.63,16.88-20.26,28.36l-58.97,45.02
				v32.86h124.7v-35.56h-65.05l27.01-18.91c23.41-16.88,36.46-29.94,36.46-55.15v-0.45C842.89,20.93,819.26,0.45,784.82,0.45
				L784.82,0.45z"/>
		</g>
		<g>
			<path d="M927.3,5c19.9,0,36.96,7.7,49.34,22.27C988.48,41.2,995,60.45,995,81.48v0.45c0,21.05-6.57,40.39-18.51,54.44
				c-12.49,14.71-29.66,22.49-49.65,22.49c-19.98,0-37.07-7.7-49.42-22.26c-11.79-13.91-18.28-33.16-18.28-54.22v-0.45
				c0-21.02,6.6-40.35,18.59-54.44C890.25,12.78,907.39,5,927.3,5 M927.3,130.15c10.14,0,19.08-5.06,25.16-14.25
				c5.66-8.55,8.65-20.14,8.65-33.51v-0.45c0-13.13-3.19-25.12-8.98-33.76c-6.25-9.32-15.23-14.46-25.28-14.46
				c-10.07,0-18.97,5.03-25.06,14.15c-5.72,8.57-8.75,20.19-8.75,33.61v0.45C893.04,110.32,907.13,130.15,927.3,130.15 M927.3,0
				c-44.79,0-73.15,37.36-73.15,81.93v0.45c0,44.57,27.69,81.48,72.7,81.48c45.02,0,73.15-37.36,73.15-81.93v-0.45
				C1000,36.91,972.09,0,927.3,0L927.3,0z M927.3,125.15c-17.56,0-29.26-18.01-29.26-43.22v-0.45c0-25.21,11.48-42.77,28.81-42.77
				c17.33,0,29.26,18.23,29.26,43.22v0.45C956.11,107.37,944.85,125.15,927.3,125.15L927.3,125.15z"/>
		</g>
	</g>
</g>
</svg>
