<?xml version="1.0" standalone="no"?>
<!DOCTYPE svg PUBLIC "-//W3C//DTD SVG 20010904//EN"
 "http://www.w3.org/TR/2001/REC-SVG-20010904/DTD/svg10.dtd">
<svg version="1.0" xmlns="http://www.w3.org/2000/svg"
 width="700.000000pt" height="700.000000pt" viewBox="0 0 700.000000 700.000000"
 preserveAspectRatio="xMidYMid meet">
<metadata>
Created by potrace 1.11, written by Peter Selinger 2001-2013
</metadata>
<g transform="translate(0.000000,700.000000) scale(0.100000,-0.100000)"
fill="#000000" stroke="none">
<path d="M5385 5189 c-151 -11 -324 -48 -420 -89 -219 -94 -339 -174 -491
-325 -276 -275 -441 -649 -481 -1090 -33 -363 28 -728 173 -1034 106 -224 270
-429 453 -566 169 -127 415 -229 626 -260 92 -13 115 -15 225 -16 143 -2 214
6 358 37 395 88 720 332 930 701 78 137 155 332 188 478 34 148 47 275 48 445
1 254 -11 368 -58 552 -128 490 -421 858 -833 1046 -78 36 -232 85 -307 98
-12 1 -34 5 -51 8 -94 17 -243 23 -360 15z m278 -829 c74 -28 165 -96 222
-168 38 -48 106 -171 137 -247 15 -39 47 -171 53 -225 4 -30 9 -64 11 -75 6
-27 5 -274 0 -305 -3 -14 -9 -59 -15 -100 -25 -170 -105 -354 -200 -462 -179
-202 -483 -226 -692 -54 -130 107 -233 308 -265 516 -3 19 -8 46 -10 60 -10
48 -12 305 -3 375 14 113 18 136 39 211 107 392 410 591 723 474z"/>
<path d="M2447 5184 c-1 -1 -36 -4 -77 -8 -106 -9 -158 -17 -260 -41 -3 -1
-20 -5 -38 -9 -67 -16 -230 -85 -307 -130 -43 -26 -115 -76 -159 -110 -88 -68
-264 -247 -335 -340 -44 -56 -44 -57 -25 -76 10 -10 146 -124 302 -253 l283
-235 132 133 c82 82 162 152 211 184 165 107 353 128 502 55 176 -86 220 -321
97 -521 -77 -125 -198 -238 -488 -458 -141 -107 -293 -223 -420 -320 -44 -34
-206 -157 -360 -274 -154 -118 -284 -219 -290 -226 -6 -7 -10 -138 -10 -346
l1 -334 1287 -3 c1026 -2 1287 0 1288 10 3 34 5 704 2 714 -3 7 -208 10 -672
10 -368 -1 -668 1 -666 4 2 3 43 32 92 65 48 33 90 63 93 66 3 3 32 24 65 47
33 22 98 68 145 102 47 33 92 63 100 67 8 4 21 12 30 19 8 7 73 56 144 109
164 124 170 129 296 255 161 162 252 308 301 485 28 102 28 107 36 262 6 143
-4 237 -39 358 -117 406 -501 688 -997 731 -70 6 -259 12 -264 8z"/>
<path d="M110 4676 l0 -454 128 0 c70 -1 151 -1 180 -1 l54 -1 -7 -47 c-11
-90 -16 -106 -43 -160 -50 -103 -167 -179 -328 -213 -49 -10 -90 -19 -90 -19
-1 -1 7 -40 17 -88 10 -49 25 -121 33 -161 18 -89 19 -90 53 -87 16 2 60 6 98
9 317 28 554 150 682 351 41 64 70 131 94 214 41 141 47 221 48 684 l2 427
-461 0 -460 0 0 -454z"/>
</g>
</svg>
